<?xml version="1.0" encoding="utf-8"?>
<!-- Generator: Adobe Illustrator 19.0.0, SVG Export Plug-In . SVG Version: 6.00 Build 0)  -->
<svg version="1.1" id="Layer_1" xmlns="http://www.w3.org/2000/svg" xmlns:xlink="http://www.w3.org/1999/xlink" x="0px" y="0px"
	 viewBox="0 0 342 113.7" style="enable-background:new 0 0 342 113.7;" xml:space="preserve">
<style type="text/css">
	.st0{fill:#FFFFFF;}
	.st1{fill:url(#XMLID_99_);}
	.st2{fill:url(#XMLID_100_);}
	.st3{fill:url(#XMLID_101_);}
	.st4{fill:url(#XMLID_102_);}
	.st5{opacity:0.7;fill:url(#XMLID_103_);enable-background:new    ;}
	.st6{opacity:0.7;fill:url(#XMLID_104_);enable-background:new    ;}
	.st7{opacity:0.7;fill:url(#XMLID_105_);enable-background:new    ;}
	.st8{opacity:0.7;fill:url(#XMLID_106_);enable-background:new    ;}
	.st9{opacity:0.74;fill:#FFFFFF;enable-background:new    ;}
	.st10{opacity:0.4;fill:#FFFFFF;enable-background:new    ;}
	.st11{opacity:0.45;fill:url(#XMLID_107_);enable-background:new    ;}
	.st12{opacity:0.36;fill:url(#XMLID_108_);enable-background:new    ;}
	.st13{opacity:0.45;fill:url(#XMLID_109_);enable-background:new    ;}
	.st14{opacity:0.36;fill:url(#XMLID_110_);enable-background:new    ;}
	.st15{opacity:0.5;}
	.st16{opacity:0.45;fill:url(#XMLID_112_);enable-background:new    ;}
	.st17{opacity:0.36;fill:url(#XMLID_154_);enable-background:new    ;}
	.st18{opacity:0.45;fill:url(#XMLID_159_);enable-background:new    ;}
	.st19{opacity:0.36;fill:url(#XMLID_160_);enable-background:new    ;}
	.st20{opacity:0.35;fill:url(#XMLID_164_);enable-background:new    ;}
	.st21{opacity:0.3;fill:url(#XMLID_165_);enable-background:new    ;}
	.st22{opacity:0.25;fill:url(#XMLID_169_);enable-background:new    ;}
	.st23{opacity:0.2;fill:url(#XMLID_170_);enable-background:new    ;}
	.st24{opacity:0.2;fill:url(#XMLID_174_);enable-background:new    ;}
	.st25{opacity:0.2;fill:url(#XMLID_175_);enable-background:new    ;}
	.st26{opacity:0.35;fill:url(#XMLID_179_);enable-background:new    ;}
	.st27{opacity:0.47;fill:url(#XMLID_180_);enable-background:new    ;}
	.st28{opacity:0.63;clip-path:url(#XMLID_184_);}
	.st29{fill:url(#XMLID_185_);}
	.st30{opacity:0.8;enable-background:new    ;}
	.st31{opacity:0.63;clip-path:url(#XMLID_189_);}
	.st32{fill:url(#XMLID_190_);}
	.st33{opacity:0.6;enable-background:new    ;}
	.st34{opacity:0.63;clip-path:url(#XMLID_194_);}
	.st35{fill:url(#XMLID_195_);}
	.st36{opacity:0.4;enable-background:new    ;}
	.st37{opacity:0.63;clip-path:url(#XMLID_196_);}
	.st38{fill:url(#XMLID_197_);}
	.st39{opacity:0.3;enable-background:new    ;}
	.st40{opacity:0.63;clip-path:url(#XMLID_198_);}
	.st41{fill:url(#XMLID_199_);}
	.st42{opacity:0.63;clip-path:url(#XMLID_200_);}
	.st43{fill:url(#XMLID_201_);}
	.st44{opacity:0.63;clip-path:url(#XMLID_202_);}
	.st45{fill:url(#XMLID_203_);}
	.st46{opacity:0.63;clip-path:url(#XMLID_206_);}
	.st47{fill:url(#XMLID_207_);}
</style>
<g id="XMLID_2_">
	<g id="XMLID_228_">
		<path id="XMLID_240_" class="st0" d="M140.1,56.8c-3.3-1.8-5.9-4.3-7.8-7.4c-1.9-3.2-2.8-6.7-2.8-10.6c0-3.9,0.9-7.4,2.8-10.6
			c1.9-3.2,4.5-5.6,7.8-7.4c3.3-1.8,7-2.7,11.1-2.7c4.1,0,7.8,0.9,11.1,2.7c3.3,1.8,5.9,4.2,7.8,7.4c1.9,3.1,2.8,6.7,2.8,10.6
			c0,3.9-0.9,7.5-2.8,10.6c-1.9,3.1-4.5,5.6-7.8,7.4c-3.3,1.8-7,2.7-11.1,2.7C147.1,59.4,143.4,58.5,140.1,56.8z M158.4,51.1
			c2.1-1.2,3.8-2.9,5.1-5.1s1.8-4.6,1.8-7.3c0-2.7-0.6-5.1-1.8-7.3s-2.9-3.8-5.1-5.1c-2.1-1.2-4.6-1.8-7.2-1.8
			c-2.7,0-5.1,0.6-7.2,1.8c-2.1,1.2-3.8,2.9-5.1,5.1c-1.2,2.2-1.8,4.6-1.8,7.3c0,2.7,0.6,5.1,1.8,7.3c1.2,2.2,2.9,3.8,5.1,5.1
			c2.1,1.2,4.6,1.8,7.2,1.8C153.9,52.9,156.3,52.3,158.4,51.1z"/>
		<path id="XMLID_236_" class="st0" d="M215.7,58.9l-8.2-11.8c-0.3,0-0.9,0.1-1.6,0.1h-9.1v11.7h-7.5V18.6h16.5
			c3.5,0,6.5,0.6,9.1,1.7c2.6,1.1,4.6,2.8,5.9,4.9c1.4,2.1,2.1,4.7,2.1,7.6c0,3-0.7,5.6-2.2,7.8c-1.5,2.2-3.6,3.8-6.3,4.9l9.3,13.2
			H215.7z M213,27c-1.7-1.4-4.2-2.1-7.4-2.1h-8.7v16h8.7c3.3,0,5.7-0.7,7.4-2.1c1.7-1.4,2.5-3.4,2.5-5.9
			C215.5,30.4,214.7,28.4,213,27z"/>
		<path id="XMLID_233_" class="st0" d="M270.2,52.6v6.3H240V18.6h29.4v6.3h-21.9v10.5h19.4v6.1h-19.4v11.1H270.2z"/>
		<path id="XMLID_230_" class="st0" d="M294.7,56.8c-3.3-1.8-5.9-4.3-7.8-7.4c-1.9-3.2-2.8-6.7-2.8-10.6c0-3.9,0.9-7.4,2.8-10.6
			c1.9-3.2,4.5-5.6,7.8-7.4c3.3-1.8,7-2.7,11.1-2.7c4.1,0,7.8,0.9,11.1,2.7c3.3,1.8,5.9,4.2,7.8,7.4c1.9,3.1,2.8,6.7,2.8,10.6
			c0,3.9-0.9,7.5-2.8,10.6c-1.9,3.1-4.5,5.6-7.8,7.4c-3.3,1.8-7,2.7-11.1,2.7C301.6,59.4,297.9,58.5,294.7,56.8z M313,51.1
			c2.1-1.2,3.8-2.9,5.1-5.1s1.8-4.6,1.8-7.3c0-2.7-0.6-5.1-1.8-7.3s-2.9-3.8-5.1-5.1c-2.1-1.2-4.6-1.8-7.2-1.8
			c-2.7,0-5.1,0.6-7.2,1.8c-2.1,1.2-3.8,2.9-5.1,5.1c-1.2,2.2-1.8,4.6-1.8,7.3c0,2.7,0.6,5.1,1.8,7.3c1.2,2.2,2.9,3.8,5.1,5.1
			c2.1,1.2,4.6,1.8,7.2,1.8C308.4,52.9,310.8,52.3,313,51.1z"/>
	</g>
</g>
<g id="XMLID_1_">
	<path id="XMLID_66_" class="st0" d="M133.5,96.4c-1.3-0.7-2.4-1.8-3.1-3.1c-0.8-1.3-1.1-2.8-1.1-4.4c0-1.6,0.4-3.1,1.1-4.4
		c0.8-1.3,1.8-2.3,3.2-3.1c1.3-0.7,2.8-1.1,4.5-1.1c1.2,0,2.4,0.2,3.5,0.6c1.1,0.4,2,1,2.7,1.8l-1.1,1.1c-1.3-1.3-3-2-5-2
		c-1.3,0-2.5,0.3-3.6,0.9c-1.1,0.6-1.9,1.4-2.6,2.5S131,87.7,131,89c0,1.3,0.3,2.5,0.9,3.6c0.6,1.1,1.5,1.9,2.6,2.5
		c1.1,0.6,2.3,0.9,3.6,0.9c2,0,3.7-0.7,5-2l1.1,1.1c-0.7,0.8-1.6,1.4-2.7,1.8c-1.1,0.4-2.2,0.6-3.5,0.6
		C136.4,97.5,134.9,97.2,133.5,96.4z"/>
	<path id="XMLID_68_" class="st0" d="M155.7,85.9c0.9,0.8,1.3,2,1.3,3.7v7.8h-1.6v-2c-0.4,0.7-0.9,1.2-1.7,1.5s-1.6,0.6-2.7,0.6
		c-1.4,0-2.5-0.3-3.4-1s-1.2-1.6-1.2-2.7c0-1.1,0.4-1.9,1.2-2.6c0.8-0.7,2-1,3.7-1h4v-0.8c0-1.1-0.3-1.9-0.9-2.5
		c-0.6-0.6-1.5-0.9-2.7-0.9c-0.8,0-1.6,0.1-2.3,0.4s-1.4,0.6-1.9,1.1l-0.8-1.3c0.6-0.5,1.4-1,2.3-1.3c0.9-0.3,1.8-0.4,2.8-0.4
		C153.5,84.7,154.8,85.1,155.7,85.9z M153.7,95.5c0.7-0.4,1.2-1.1,1.5-1.9v-2.1h-4c-2.2,0-3.2,0.8-3.2,2.3c0,0.7,0.3,1.3,0.8,1.7
		c0.6,0.4,1.3,0.6,2.4,0.6C152.2,96.2,153,95.9,153.7,95.5z"/>
	<path id="XMLID_71_" class="st0" d="M165,85.3c0.8-0.4,1.8-0.6,2.9-0.6v1.7l-0.4,0c-1.3,0-2.4,0.4-3.1,1.2c-0.8,0.8-1.1,2-1.1,3.4
		v6.4h-1.7V84.8h1.6v2.5C163.6,86.4,164.2,85.7,165,85.3z"/>
	<path id="XMLID_73_" class="st0" d="M181.9,91.6h-10.6c0.1,1.3,0.6,2.4,1.5,3.2c0.9,0.8,2.1,1.2,3.5,1.2c0.8,0,1.5-0.1,2.2-0.4
		c0.7-0.3,1.2-0.7,1.7-1.2l1,1.1c-0.6,0.7-1.3,1.2-2.1,1.5c-0.8,0.4-1.8,0.5-2.8,0.5c-1.3,0-2.4-0.3-3.4-0.8c-1-0.6-1.8-1.3-2.3-2.3
		c-0.6-1-0.8-2.1-0.8-3.3c0-1.2,0.3-2.3,0.8-3.3c0.5-1,1.3-1.7,2.2-2.3c0.9-0.5,2-0.8,3.2-0.8s2.2,0.3,3.1,0.8
		c0.9,0.5,1.7,1.3,2.2,2.3c0.5,1,0.8,2.1,0.8,3.3L181.9,91.6z M172.8,87.3c-0.8,0.8-1.3,1.8-1.4,3h9c-0.1-1.2-0.6-2.3-1.4-3
		c-0.8-0.8-1.9-1.2-3.1-1.2C174.6,86.1,173.6,86.5,172.8,87.3z"/>
	<path id="XMLID_76_" class="st0" d="M197.8,91.6v5.8h-1.8v-5.8l-6.7-11h1.9L197,90l5.8-9.4h1.8L197.8,91.6z"/>
	<path id="XMLID_78_" class="st0" d="M207.4,96.7c-1-0.6-1.7-1.3-2.3-2.3c-0.6-1-0.8-2.1-0.8-3.3c0-1.2,0.3-2.3,0.8-3.3
		c0.6-1,1.3-1.7,2.3-2.3c1-0.5,2.1-0.8,3.3-0.8s2.3,0.3,3.3,0.8c1,0.5,1.7,1.3,2.3,2.3c0.6,1,0.8,2.1,0.8,3.3c0,1.2-0.3,2.3-0.8,3.3
		c-0.6,1-1.3,1.7-2.3,2.3c-1,0.6-2.1,0.8-3.3,0.8S208.3,97.2,207.4,96.7z M213.1,95.4c0.7-0.4,1.3-1,1.7-1.7
		c0.4-0.8,0.6-1.6,0.6-2.6c0-1-0.2-1.8-0.6-2.6c-0.4-0.8-1-1.3-1.7-1.7s-1.5-0.6-2.4-0.6c-0.9,0-1.7,0.2-2.4,0.6s-1.3,1-1.7,1.7
		c-0.4,0.8-0.6,1.6-0.6,2.6c0,1,0.2,1.8,0.6,2.6c0.4,0.8,1,1.3,1.7,1.7s1.5,0.6,2.4,0.6C211.6,96,212.4,95.8,213.1,95.4z"/>
	<path id="XMLID_81_" class="st0" d="M231.9,84.8v12.6h-1.6v-2.3c-0.4,0.8-1.1,1.4-1.8,1.8c-0.8,0.4-1.7,0.6-2.7,0.6
		c-1.6,0-2.9-0.5-3.9-1.4s-1.4-2.3-1.4-4v-7.3h1.7v7.2c0,1.3,0.3,2.3,1,3c0.7,0.7,1.6,1,2.8,1c1.3,0,2.4-0.4,3.1-1.2
		c0.8-0.8,1.2-1.9,1.2-3.4v-6.6H231.9z"/>
	<path id="XMLID_83_" class="st0" d="M240.1,85.3c0.8-0.4,1.8-0.6,2.9-0.6v1.7l-0.4,0c-1.3,0-2.4,0.4-3.1,1.2
		c-0.8,0.8-1.1,2-1.1,3.4v6.4h-1.7V84.8h1.6v2.5C238.7,86.4,239.3,85.7,240.1,85.3z"/>
	<path id="XMLID_85_" class="st0" d="M267,80.6v16.8h-1.8v-7.8h-10.5v7.8H253V80.6h1.8v7.5h10.5v-7.5H267z"/>
	<path id="XMLID_87_" class="st0" d="M283.1,91.6h-10.6c0.1,1.3,0.6,2.4,1.5,3.2c0.9,0.8,2.1,1.2,3.5,1.2c0.8,0,1.5-0.1,2.2-0.4
		c0.7-0.3,1.2-0.7,1.7-1.2l1,1.1c-0.6,0.7-1.3,1.2-2.1,1.5c-0.8,0.4-1.8,0.5-2.8,0.5c-1.3,0-2.4-0.3-3.4-0.8s-1.8-1.3-2.3-2.3
		c-0.6-1-0.8-2.1-0.8-3.3c0-1.2,0.3-2.3,0.8-3.3c0.5-1,1.3-1.7,2.2-2.3c0.9-0.5,2-0.8,3.2-0.8c1.2,0,2.2,0.3,3.1,0.8
		c0.9,0.5,1.7,1.3,2.2,2.3c0.5,1,0.8,2.1,0.8,3.3L283.1,91.6z M274,87.3c-0.8,0.8-1.3,1.8-1.4,3h9c-0.1-1.2-0.6-2.3-1.4-3
		c-0.8-0.8-1.9-1.2-3.1-1.2C275.8,86.1,274.8,86.5,274,87.3z"/>
	<path id="XMLID_90_" class="st0" d="M294.5,85.9c0.9,0.8,1.3,2,1.3,3.7v7.8h-1.6v-2c-0.4,0.7-0.9,1.2-1.7,1.5s-1.6,0.6-2.7,0.6
		c-1.4,0-2.5-0.3-3.4-1c-0.8-0.7-1.2-1.6-1.2-2.7c0-1.1,0.4-1.9,1.2-2.6c0.8-0.7,2-1,3.7-1h4v-0.8c0-1.1-0.3-1.9-0.9-2.5
		c-0.6-0.6-1.5-0.9-2.7-0.9c-0.8,0-1.6,0.1-2.3,0.4c-0.7,0.3-1.4,0.6-1.9,1.1l-0.8-1.3c0.6-0.5,1.4-1,2.3-1.3
		c0.9-0.3,1.8-0.4,2.8-0.4C292.3,84.7,293.6,85.1,294.5,85.9z M292.5,95.5c0.7-0.4,1.2-1.1,1.5-1.9v-2.1h-4c-2.2,0-3.2,0.8-3.2,2.3
		c0,0.7,0.3,1.3,0.8,1.7c0.6,0.4,1.3,0.6,2.4,0.6C291,96.2,291.9,95.9,292.5,95.5z"/>
	<path id="XMLID_93_" class="st0" d="M300.4,79.6h1.7v17.8h-1.7V79.6z"/>
	<path id="XMLID_95_" class="st0" d="M313.6,96.6c-0.3,0.3-0.7,0.5-1.2,0.7c-0.5,0.2-1,0.2-1.5,0.2c-1.2,0-2.1-0.3-2.7-1
		c-0.6-0.6-1-1.5-1-2.7v-7.6H305v-1.4h2.3V82h1.7v2.8h3.8v1.4h-3.8v7.5c0,0.8,0.2,1.3,0.6,1.7c0.4,0.4,0.9,0.6,1.6,0.6
		c0.4,0,0.7-0.1,1-0.2c0.3-0.1,0.6-0.3,0.9-0.5L313.6,96.6z"/>
	<path id="XMLID_97_" class="st0" d="M326.9,86c0.9,0.9,1.4,2.3,1.4,4v7.3h-1.7v-7.2c0-1.3-0.3-2.3-1-3c-0.7-0.7-1.6-1-2.8-1
		c-1.4,0-2.4,0.4-3.2,1.2s-1.2,1.9-1.2,3.3v6.6h-1.7V79.6h1.7V87c0.5-0.7,1.1-1.3,1.9-1.7c0.8-0.4,1.8-0.6,2.8-0.6
		C324.7,84.7,325.9,85.1,326.9,86z"/>
</g>
<g id="XMLID_155_">
	<g id="XMLID_204_">
		<path id="XMLID_244_" class="st0" d="M53.4,106.7c-4.2,0-8.1-2.2-11.2-6.4c-2.3-3.2-4.1-7.1-5.9-11c-1.8-3.8-3.6-7.8-5.5-9.7
			S25,75.9,21,74.1c-3.8-1.8-7.8-3.6-11-5.9c-4.2-3.2-6.4-7-6.4-11.2S5.8,49,10,45.7c3.2-2.3,7.1-4.1,11-5.9s7.9-3.6,9.9-5.5
			c1.9-1.9,3.7-5.9,5.5-9.7c1.8-3.8,3.6-7.8,5.9-11c3.2-4.2,7-6.4,11.2-6.4s8.1,2.2,11.2,6.4c2.3,3.2,4.1,7.1,5.9,11
			c1.8,3.8,3.6,7.8,5.5,9.7c1.9,1.9,5.9,3.7,9.9,5.5c3.8,1.8,7.8,3.6,11,5.9c4.2,3.2,6.4,7,6.4,11.2s-2.2,7.9-6.4,11.2
			c-3.2,2.3-7.1,4.1-11,5.9c-3.8,1.8-7.9,3.6-9.9,5.5c-1.9,1.9-3.7,5.9-5.5,9.7c-1.8,3.8-3.6,7.8-5.9,11
			C61.5,104.5,57.7,106.7,53.4,106.7z M53.4,15.7c-3.6,0-6.6,6.6-9.2,12.3c-2.2,4.8-4.2,9.3-7.3,12.3s-7.5,5.1-12.3,7.3
			c-5.8,2.6-12.3,5.6-12.3,9.2c0,3.6,6.6,6.6,12.3,9.2c4.8,2.2,9.3,4.2,12.3,7.3c3,3,5.1,7.5,7.3,12.3c2.6,5.8,5.6,12.3,9.2,12.3
			c3.6,0,6.6-6.6,9.2-12.3c2.2-4.8,4.2-9.3,7.3-12.3c3-3,7.5-5.1,12.3-7.3c5.8-2.6,12.3-5.6,12.3-9.2c0-3.6-6.6-6.6-12.3-9.2
			c-4.8-2.2-9.3-4.2-12.3-7.3c-3-3-5.1-7.5-7.3-12.3C60,22.3,57,15.7,53.4,15.7z"/>
		<g id="XMLID_239_">
			
				<linearGradient id="XMLID_99_" gradientUnits="userSpaceOnUse" x1="219.2419" y1="-205.7818" x2="219.2419" y2="-166.6484" gradientTransform="matrix(0.7071 -0.7071 -0.7071 -0.7071 -249.8596 54.0565)">
				<stop  offset="0" style="stop-color:#2D394C"/>
				<stop  offset="1" style="stop-color:#465C73"/>
			</linearGradient>
			<path id="XMLID_151_" class="st1" d="M21,39.7c1.2-0.5,2.6-1.2,3.8-1.8c-1.4-4.4-2.2-8.4-0.4-10.1c2.5-2.5,9.3,0,15.2,2.2
				c4.9,1.8,9.6,3.6,13.8,3.6c3.3,0,6.8-1.1,10.5-2.3c-0.5-1-1-2.1-1.4-3.2c-0.7-1.6-1.5-3.3-2.3-4.8c-2.6,1-5.1,1.6-6.8,1.6
				c-2.7,0-6.8-1.5-10.8-3c-4-1.5-8.1-3-11.9-3.6c-5.3-0.8-9.5,0.3-12.5,3.3c-3,3-4.1,7.3-3.3,12.5c0.4,2.5,1.1,5.1,1.9,7.5
				C18.2,41.1,19.6,40.4,21,39.7z"/>
			
				<linearGradient id="XMLID_100_" gradientUnits="userSpaceOnUse" x1="182.2395" y1="-231.5947" x2="182.2395" y2="-187.8118" gradientTransform="matrix(0.7071 -0.7071 -0.7071 -0.7071 -249.8596 54.0565)">
				<stop  offset="0" style="stop-color:#2D394C"/>
				<stop  offset="1" style="stop-color:#465C73"/>
			</linearGradient>
			<path id="XMLID_150_" class="st2" d="M36.3,89.2c-0.5-1.2-1.1-2.5-1.8-3.7c-4.4,1.5-8.5,2.3-10.3,0.4c-2.5-2.5,0-9.3,2.2-15.2
				c1.8-4.9,3.6-9.6,3.6-13.8c0-3.3-1.1-6.8-2.3-10.7c-1.1,0.5-2.1,1-3.2,1.5c-1.6,0.7-3.3,1.5-4.8,2.2c1,2.6,1.6,5.1,1.6,7
				c0,2.7-1.5,6.8-3,10.8c-1.5,4-3,8.1-3.6,11.9C14,84.9,15.1,89,18.1,92s7.3,4.1,12.5,3.3c2.5-0.4,5.1-1.1,7.7-2.1
				C37.6,92,37,90.7,36.3,89.2z"/>
			
				<linearGradient id="XMLID_101_" gradientUnits="userSpaceOnUse" x1="242.689" y1="-245.1089" x2="242.689" y2="-201.2942" gradientTransform="matrix(0.7071 -0.7071 -0.7071 -0.7071 -249.8596 54.0565)">
				<stop  offset="0" style="stop-color:#2D394C"/>
				<stop  offset="1" style="stop-color:#465C73"/>
			</linearGradient>
			<path id="XMLID_149_" class="st3" d="M76.2,18.2c-2.5,0.4-5.1,1.1-7.7,2.1c0.7,1.4,1.4,2.7,1.9,4.2c0.5,1.2,1.1,2.5,1.8,3.7
				c4.4-1.5,8.5-2.3,10.3-0.4c2.5,2.5,0,9.3-2.2,15.2c-1.8,4.9-3.6,9.6-3.6,13.8c0,3.3,1.1,6.8,2.3,10.7c1.1-0.5,2.1-1,3.2-1.5
				c1.6-0.7,3.3-1.5,4.8-2.2c-1-2.6-1.6-5.1-1.6-7c0-2.7,1.5-6.8,3-10.8c1.5-4,3-8.1,3.6-11.9c0.8-5.3-0.3-9.5-3.3-12.5
				C85.8,18.5,81.5,17.4,76.2,18.2z"/>
			
				<linearGradient id="XMLID_102_" gradientUnits="userSpaceOnUse" x1="205.7777" y1="-266.2254" x2="205.7777" y2="-227.092" gradientTransform="matrix(0.7071 -0.7071 -0.7071 -0.7071 -249.8596 54.0565)">
				<stop  offset="0" style="stop-color:#2D394C"/>
				<stop  offset="1" style="stop-color:#465C73"/>
			</linearGradient>
			<path id="XMLID_148_" class="st4" d="M85.9,74c-1.2,0.5-2.6,1.2-3.8,1.8c1.4,4.4,2.2,8.4,0.4,10.1c-2.5,2.5-9.3,0-15.2-2.2
				c-4.9-1.8-9.6-3.6-13.8-3.6c-3.3,0-6.8,1.1-10.5,2.3c0.5,1,1,2.1,1.4,3.2c0.7,1.6,1.5,3.3,2.3,4.8c2.6-1,5.1-1.6,6.8-1.6
				c2.7,0,6.8,1.5,10.8,3s8.1,3,11.9,3.6c5.3,0.8,9.5-0.3,12.5-3.3c3-3,4.1-7.3,3.3-12.5c-0.4-2.5-1.1-5.1-1.9-7.5
				C88.7,72.6,87.3,73.3,85.9,74z"/>
		</g>
		<g id="XMLID_234_">
			
				<linearGradient id="XMLID_103_" gradientUnits="userSpaceOnUse" x1="211.9934" y1="-259.8695" x2="223.2498" y2="-248.6132" gradientTransform="matrix(0.7071 -0.7071 -0.7071 -0.7071 -249.8596 54.0565)">
				<stop  offset="0" style="stop-color:#252F3D"/>
				<stop  offset="1" style="stop-color:#FFFFFF;stop-opacity:0"/>
			</linearGradient>
			<path id="XMLID_147_" class="st5" d="M75.4,86.4c0,0,17.3,5.5,16.8-4.1c0,0,0.1-3-2.2-10.3l-7.9,3.7c0,0,2.2,6.3,1.2,8.8
				C82.5,86.7,80.6,87.7,75.4,86.4z"/>
			
				<linearGradient id="XMLID_104_" gradientUnits="userSpaceOnUse" x1="-138.6435" y1="-765.8782" x2="-127.3872" y2="-754.6219" gradientTransform="matrix(-0.7071 -0.7071 -0.7071 0.7071 -555.0624 470.0049)">
				<stop  offset="0" style="stop-color:#252F3D"/>
				<stop  offset="1" style="stop-color:#FFFFFF;stop-opacity:0"/>
			</linearGradient>
			<path id="XMLID_146_" class="st6" d="M83,34.9c0,0,5.3-17.3-4.1-16.8c0,0-3-0.1-10.3,2.2l3.7,7.9c0,0,6.3-2.2,8.8-1.2
				C83.3,27.8,84.3,29.7,83,34.9z"/>
			
				<linearGradient id="XMLID_105_" gradientUnits="userSpaceOnUse" x1="-644.6525" y1="-415.2415" x2="-633.396" y2="-403.9849" gradientTransform="matrix(-0.7071 0.7071 0.7071 0.7071 -139.114 775.2078)">
				<stop  offset="0" style="stop-color:#252F3D"/>
				<stop  offset="1" style="stop-color:#FFFFFF;stop-opacity:0"/>
			</linearGradient>
			<path id="XMLID_145_" class="st7" d="M31.5,27.2c0,0-17.3-5.5-16.8,4.1c0,0-0.1,3,2.2,10.3l7.9-3.7c0,0-2.2-6.3-1.2-8.8
				C24.4,27,26.3,26,31.5,27.2z"/>
			
				<linearGradient id="XMLID_106_" gradientUnits="userSpaceOnUse" x1="-294.0155" y1="90.7673" x2="-282.759" y2="102.0238" gradientTransform="matrix(0.7071 0.7071 0.7071 -0.7071 166.0888 359.2593)">
				<stop  offset="0" style="stop-color:#252F3D"/>
				<stop  offset="1" style="stop-color:#FFFFFF;stop-opacity:0"/>
			</linearGradient>
			<path id="XMLID_144_" class="st8" d="M23.9,78.8c0,0-5.3,17.3,4.1,16.8c0,0,3,0.1,10.3-2.2l-3.7-7.9c0,0-6.3,2.2-8.8,1.2
				C23.6,85.9,22.6,84,23.9,78.8z"/>
		</g>
		<g id="XMLID_229_">
			<path id="XMLID_143_" class="st9" d="M48.1,93.3c0,0,8.4,16,14.8,9c0,0,2.2-2.1,5.8-8.9l-8.2-3c0,0-3,6-5.2,7.1
				C52.8,98.5,50.8,97.8,48.1,93.3z"/>
			<path id="XMLID_142_" class="st9" d="M89.9,62.2c0,0,16-8.4,9-14.8c0,0-2.1-2.2-8.9-5.8l-3,8.2c0,0,6,3,7.1,5.2
				C95.1,57.5,94.4,59.4,89.9,62.2z"/>
			<path id="XMLID_141_" class="st10" d="M58.8,20.4c0,0-8.4-16-14.8-9c0,0-2.2,2.1-5.8,8.9l8.2,3c0,0,3-6,5.2-7.1
				C54.1,15.2,56.1,15.9,58.8,20.4z"/>
			<path id="XMLID_140_" class="st10" d="M17,51.5c0,0-16,8.4-9,14.8c0,0,2.1,2.2,8.9,5.8l3-8.2c0,0-6-3-7.1-5.2
				C11.8,56.1,12.5,54.2,17,51.5z"/>
		</g>
		<g id="XMLID_226_">
			
				<linearGradient id="XMLID_107_" gradientUnits="userSpaceOnUse" x1="235.709" y1="-245.0938" x2="235.709" y2="-227.0098" gradientTransform="matrix(0.7071 -0.7071 -0.7071 -0.7071 -249.8596 54.0565)">
				<stop  offset="0" style="stop-color:#252F3D"/>
				<stop  offset="0.1224" style="stop-color:#4A535E;stop-opacity:0.8776"/>
				<stop  offset="0.3568" style="stop-color:#898F96;stop-opacity:0.6432"/>
				<stop  offset="0.5703" style="stop-color:#BDBFC3;stop-opacity:0.4297"/>
				<stop  offset="0.7553" style="stop-color:#E0E2E4;stop-opacity:0.2447"/>
				<stop  offset="0.9048" style="stop-color:#F7F8F9;stop-opacity:9.520561e-002"/>
				<stop  offset="1" style="stop-color:#FFFFFF;stop-opacity:0"/>
			</linearGradient>
			<path id="XMLID_139_" class="st11" d="M79.2,46c-1.4,3.8-2.5,7.4-2.5,10.7s1.1,6.8,2.3,10.7c1.1-0.5,2.1-1,3.2-1.5
				c1.6-0.7,3.3-1.5,4.8-2.2c-1-2.6-1.6-5.1-1.6-7c0-2.7,1.5-6.8,3-10.8c0.4-1.1,0.8-2.2,1.2-3.4L79.2,46z"/>
			
				<linearGradient id="XMLID_108_" gradientUnits="userSpaceOnUse" x1="219.8231" y1="-265.759" x2="219.8231" y2="-250.0287" gradientTransform="matrix(0.7071 -0.7071 -0.7071 -0.7071 -249.8596 54.0565)">
				<stop  offset="0" style="stop-color:#FFFFFF;stop-opacity:0"/>
				<stop  offset="9.520561e-002" style="stop-color:#F7F8F9;stop-opacity:9.520561e-002"/>
				<stop  offset="0.2447" style="stop-color:#E0E2E4;stop-opacity:0.2447"/>
				<stop  offset="0.4297" style="stop-color:#BDBFC3;stop-opacity:0.4297"/>
				<stop  offset="0.6432" style="stop-color:#898F96;stop-opacity:0.6432"/>
				<stop  offset="0.8776" style="stop-color:#4A535E;stop-opacity:0.8776"/>
				<stop  offset="1" style="stop-color:#252F3D"/>
			</linearGradient>
			<path id="XMLID_138_" class="st12" d="M85.9,74c-1.2,0.5-2.6,1.2-3.8,1.8c1.4,4.4,2.2,8.4,0.4,10.1c-0.1,0.1-0.4,0.3-0.5,0.4
				l8.8,3c1.5-2.6,1.9-5.9,1.4-9.9c-0.4-2.5-1.1-5.1-1.9-7.5C88.7,72.6,87.3,73.3,85.9,74z"/>
		</g>
		<g id="XMLID_223_">
			<path id="XMLID_137_" class="st0" d="M64,31.1c1.8,3.7,3.6,7,5.9,9.3c2.3,2.3,5.6,4.1,9.2,5.9c0.4-1.1,0.8-2.2,1.2-3.3
				c0.5-1.6,1.2-3.3,1.8-4.9c-2.5-1.2-4.8-2.5-6-3.8c-1.9-1.9-3.7-5.9-5.5-9.9c-0.5-1.1-1-2.2-1.5-3.3L64,31.1z"/>
			<path id="XMLID_136_" class="st0" d="M88.5,46c-0.5,1.4-1,2.6-1.5,4c4.1,2.1,7.5,4.4,7.5,6.8c0,0.3,0,0.5-0.1,0.8l8.4-4.1
				c-0.8-2.9-2.9-5.5-6-7.8c-2.1-1.5-4.4-2.7-6.7-4C89.5,43.1,89.1,44.5,88.5,46z"/>
		</g>
		<g id="XMLID_220_">
			
				<linearGradient id="XMLID_109_" gradientUnits="userSpaceOnUse" x1="-114.928" y1="-751.1026" x2="-114.928" y2="-733.0187" gradientTransform="matrix(-0.7071 -0.7071 -0.7071 0.7071 -555.0624 470.0049)">
				<stop  offset="0" style="stop-color:#252F3D"/>
				<stop  offset="0.1224" style="stop-color:#4A535E;stop-opacity:0.8776"/>
				<stop  offset="0.3568" style="stop-color:#898F96;stop-opacity:0.6432"/>
				<stop  offset="0.5703" style="stop-color:#BDBFC3;stop-opacity:0.4297"/>
				<stop  offset="0.7553" style="stop-color:#E0E2E4;stop-opacity:0.2447"/>
				<stop  offset="0.9048" style="stop-color:#F7F8F9;stop-opacity:9.520561e-002"/>
				<stop  offset="1" style="stop-color:#FFFFFF;stop-opacity:0"/>
			</linearGradient>
			<path id="XMLID_135_" class="st13" d="M42.6,31.1c3.8,1.4,7.4,2.5,10.7,2.5c3.3,0,6.8-1.1,10.7-2.3c-0.5-1.1-1-2.1-1.5-3.2
				c-0.7-1.6-1.5-3.3-2.2-4.8c-2.6,1-5.1,1.6-7,1.6c-2.7,0-6.8-1.5-10.8-3c-1.1-0.4-2.2-0.8-3.4-1.2L42.6,31.1z"/>
			
				<linearGradient id="XMLID_110_" gradientUnits="userSpaceOnUse" x1="-130.8138" y1="-771.7676" x2="-130.8138" y2="-756.0374" gradientTransform="matrix(-0.7071 -0.7071 -0.7071 0.7071 -555.0624 470.0049)">
				<stop  offset="0" style="stop-color:#FFFFFF;stop-opacity:0"/>
				<stop  offset="9.520561e-002" style="stop-color:#F7F8F9;stop-opacity:9.520561e-002"/>
				<stop  offset="0.2447" style="stop-color:#E0E2E4;stop-opacity:0.2447"/>
				<stop  offset="0.4297" style="stop-color:#BDBFC3;stop-opacity:0.4297"/>
				<stop  offset="0.6432" style="stop-color:#898F96;stop-opacity:0.6432"/>
				<stop  offset="0.8776" style="stop-color:#4A535E;stop-opacity:0.8776"/>
				<stop  offset="1" style="stop-color:#252F3D"/>
			</linearGradient>
			<path id="XMLID_134_" class="st14" d="M70.6,24.4c0.5,1.2,1.2,2.6,1.8,3.8c4.4-1.4,8.4-2.2,10.1-0.4c0.1,0.1,0.3,0.4,0.4,0.5
				l3-8.8c-2.6-1.5-5.9-1.9-9.9-1.4c-2.5,0.4-5.1,1.1-7.5,1.9C69.2,21.6,69.9,23,70.6,24.4z"/>
		</g>
		<g id="XMLID_217_" class="st15">
			<path id="XMLID_133_" class="st0" d="M27.7,46.3c3.7-1.8,7-3.6,9.3-5.9c2.3-2.3,4.1-5.6,5.9-9.2c-1.1-0.4-2.2-0.8-3.3-1.2
				c-1.6-0.5-3.3-1.2-4.9-1.8c-1.2,2.5-2.5,4.8-3.8,6c-1.9,1.9-5.9,3.7-9.9,5.5c-1.1,0.5-2.2,1-3.3,1.5L27.7,46.3z"/>
			<path id="XMLID_132_" class="st0" d="M42.6,21.8c1.4,0.5,2.6,1,4,1.5c2.1-4.1,4.4-7.5,6.8-7.5c0.3,0,0.5,0,0.8,0.1l-4.1-8.4
				c-2.9,0.8-5.5,2.9-7.8,6c-1.5,2.1-2.7,4.4-4,6.7C39.7,20.8,41.1,21.2,42.6,21.8z"/>
		</g>
		<g id="XMLID_214_" class="st15">
			
				<linearGradient id="XMLID_112_" gradientUnits="userSpaceOnUse" x1="-620.9368" y1="-400.4657" x2="-620.9368" y2="-382.3818" gradientTransform="matrix(-0.7071 0.7071 0.7071 0.7071 -139.114 775.2078)">
				<stop  offset="0" style="stop-color:#252F3D"/>
				<stop  offset="0.1224" style="stop-color:#4A535E;stop-opacity:0.8776"/>
				<stop  offset="0.3568" style="stop-color:#898F96;stop-opacity:0.6432"/>
				<stop  offset="0.5703" style="stop-color:#BDBFC3;stop-opacity:0.4297"/>
				<stop  offset="0.7553" style="stop-color:#E0E2E4;stop-opacity:0.2447"/>
				<stop  offset="0.9048" style="stop-color:#F7F8F9;stop-opacity:9.520561e-002"/>
				<stop  offset="1" style="stop-color:#FFFFFF;stop-opacity:0"/>
			</linearGradient>
			<path id="XMLID_131_" class="st16" d="M27.7,67.7c1.4-3.8,2.5-7.4,2.5-10.7c0-3.3-1.1-6.8-2.3-10.7c-1.1,0.5-2.1,1-3.2,1.5
				c-1.6,0.7-3.3,1.5-4.8,2.2c1,2.6,1.6,5.1,1.6,7c0,2.7-1.5,6.8-3,10.8c-0.4,1.1-0.8,2.2-1.2,3.4L27.7,67.7z"/>
			
				<linearGradient id="XMLID_154_" gradientUnits="userSpaceOnUse" x1="-636.8226" y1="-421.1309" x2="-636.8226" y2="-405.4006" gradientTransform="matrix(-0.7071 0.7071 0.7071 0.7071 -139.114 775.2078)">
				<stop  offset="0" style="stop-color:#FFFFFF;stop-opacity:0"/>
				<stop  offset="9.520561e-002" style="stop-color:#F7F8F9;stop-opacity:9.520561e-002"/>
				<stop  offset="0.2447" style="stop-color:#E0E2E4;stop-opacity:0.2447"/>
				<stop  offset="0.4297" style="stop-color:#BDBFC3;stop-opacity:0.4297"/>
				<stop  offset="0.6432" style="stop-color:#898F96;stop-opacity:0.6432"/>
				<stop  offset="0.8776" style="stop-color:#4A535E;stop-opacity:0.8776"/>
				<stop  offset="1" style="stop-color:#252F3D"/>
			</linearGradient>
			<path id="XMLID_130_" class="st17" d="M21,39.7c1.2-0.5,2.6-1.2,3.8-1.8c-1.4-4.4-2.2-8.4-0.4-10.1c0.1-0.1,0.4-0.3,0.5-0.4
				l-8.8-3c-1.5,2.6-1.9,5.9-1.4,9.9c0.4,2.5,1.1,5.1,1.9,7.5C18.2,41.1,19.6,40.4,21,39.7z"/>
		</g>
		<g id="XMLID_211_">
			<path id="XMLID_129_" class="st0" d="M42.9,82.6c-1.8-3.7-3.6-7-5.9-9.3c-2.3-2.3-5.6-4.1-9.2-5.9c-0.4,1.1-0.8,2.2-1.2,3.3
				c-0.5,1.6-1.2,3.3-1.8,4.9c2.5,1.2,4.8,2.5,6,3.8c1.9,1.9,3.7,5.9,5.5,9.9c0.5,1.1,1,2.2,1.5,3.3L42.9,82.6z"/>
			<path id="XMLID_128_" class="st0" d="M18.4,67.7c0.5-1.4,1-2.6,1.5-4c-4.1-2.1-7.5-4.4-7.5-6.8c0-0.3,0-0.5,0.1-0.8l-8.4,4.1
				c0.8,2.9,2.9,5.5,6,7.8c2.1,1.5,4.4,2.7,6.7,4C17.4,70.5,17.8,69.2,18.4,67.7z"/>
		</g>
		<g id="XMLID_208_">
			
				<linearGradient id="XMLID_159_" gradientUnits="userSpaceOnUse" x1="-270.2998" y1="105.5431" x2="-270.2998" y2="123.627" gradientTransform="matrix(0.7071 0.7071 0.7071 -0.7071 166.0888 359.2593)">
				<stop  offset="0" style="stop-color:#252F3D"/>
				<stop  offset="0.1224" style="stop-color:#4A535E;stop-opacity:0.8776"/>
				<stop  offset="0.3568" style="stop-color:#898F96;stop-opacity:0.6432"/>
				<stop  offset="0.5703" style="stop-color:#BDBFC3;stop-opacity:0.4297"/>
				<stop  offset="0.7553" style="stop-color:#E0E2E4;stop-opacity:0.2447"/>
				<stop  offset="0.9048" style="stop-color:#F7F8F9;stop-opacity:9.520561e-002"/>
				<stop  offset="1" style="stop-color:#FFFFFF;stop-opacity:0"/>
			</linearGradient>
			<path id="XMLID_127_" class="st18" d="M64.3,82.6c-3.8-1.4-7.4-2.5-10.7-2.5c-3.3,0-6.8,1.1-10.7,2.3c0.5,1.1,1,2.1,1.5,3.2
				c0.7,1.6,1.5,3.3,2.2,4.8c2.6-1,5.1-1.6,7-1.6c2.7,0,6.8,1.5,10.8,3c1.1,0.4,2.2,0.8,3.4,1.2L64.3,82.6z"/>
			
				<linearGradient id="XMLID_160_" gradientUnits="userSpaceOnUse" x1="-286.1856" y1="84.878" x2="-286.1856" y2="100.6083" gradientTransform="matrix(0.7071 0.7071 0.7071 -0.7071 166.0888 359.2593)">
				<stop  offset="0" style="stop-color:#FFFFFF;stop-opacity:0"/>
				<stop  offset="9.520561e-002" style="stop-color:#F7F8F9;stop-opacity:9.520561e-002"/>
				<stop  offset="0.2447" style="stop-color:#E0E2E4;stop-opacity:0.2447"/>
				<stop  offset="0.4297" style="stop-color:#BDBFC3;stop-opacity:0.4297"/>
				<stop  offset="0.6432" style="stop-color:#898F96;stop-opacity:0.6432"/>
				<stop  offset="0.8776" style="stop-color:#4A535E;stop-opacity:0.8776"/>
				<stop  offset="1" style="stop-color:#252F3D"/>
			</linearGradient>
			<path id="XMLID_126_" class="st19" d="M36.3,89.3c-0.5-1.2-1.2-2.6-1.8-3.8c-4.4,1.4-8.4,2.2-10.1,0.4c-0.1-0.1-0.3-0.4-0.4-0.5
				l-3,8.8c2.6,1.5,5.9,1.9,9.9,1.4c2.5-0.4,5.1-1.1,7.5-1.9C37.7,92,37,90.7,36.3,89.3z"/>
		</g>
		<g id="XMLID_205_">
			<path id="XMLID_125_" class="st0" d="M79.2,67.4c-3.7,1.8-7,3.6-9.3,5.9c-2.3,2.3-4.1,5.6-5.9,9.2c1.1,0.4,2.2,0.8,3.3,1.2
				c1.6,0.5,3.3,1.2,4.9,1.8c1.2-2.5,2.5-4.8,3.8-6c1.9-1.9,5.9-3.7,9.9-5.5c1.1-0.5,2.2-1,3.3-1.5L79.2,67.4z"/>
			<path id="XMLID_124_" class="st0" d="M64.3,91.9c-1.4-0.5-2.6-1-4-1.5c-2.1,4.1-4.4,7.5-6.8,7.5c-0.3,0-0.5,0-0.8-0.1l4.1,8.4
				c2.9-0.8,5.5-2.9,7.8-6c1.5-2.1,2.7-4.4,4-6.7C67.1,92.9,65.8,92.4,64.3,91.9z"/>
		</g>
	</g>
	
		<linearGradient id="XMLID_164_" gradientUnits="userSpaceOnUse" x1="173.6588" y1="-185.275" x2="212.4909" y2="-185.275" gradientTransform="matrix(0.7071 -0.7071 -0.7071 -0.7071 -249.8596 54.0565)">
		<stop  offset="0" style="stop-color:#FFFFFF"/>
		<stop  offset="0.797" style="stop-color:#FFFFFF;stop-opacity:0"/>
	</linearGradient>
	<path id="XMLID_123_" class="st20" d="M8,66.3c-6.3-5.8,5.8-12.9,8.5-14.5c2.3-1.5,5.3-2.9,8.1-4.1c4.8-2.2,9.3-4.2,12.3-7.3
		l-6.2-6.2c-1.9,1.9-5.9,3.7-9.9,5.5c-3.8,1.8-7.8,3.6-11,5.9c-4.2,3.2-6.4,7-6.4,11.2C3.6,60.4,5.1,63.5,8,66.3L8,66.3z"/>
	
		<linearGradient id="XMLID_165_" gradientUnits="userSpaceOnUse" x1="76.3095" y1="-507.3576" x2="115.141" y2="-507.3576" gradientTransform="matrix(0 -1 -1 0 -485 172)">
		<stop  offset="0" style="stop-color:#FFFFFF"/>
		<stop  offset="0.797" style="stop-color:#FFFFFF;stop-opacity:0"/>
	</linearGradient>
	<path id="XMLID_122_" class="st21" d="M28,95.6c-8.5,0.4-5.1-13.2-4.2-16.2c0.5-2.7,1.8-5.8,2.9-8.6c1.8-4.9,3.6-9.6,3.6-13.8h-8.8
		c0,2.7-1.5,6.8-3,10.8c-1.5,4-3,8.1-3.6,11.9c-0.8,5.3,0.3,9.5,3.3,12.5C20.7,94.6,24,95.9,28,95.6L28,95.6z"/>
	
		<linearGradient id="XMLID_169_" gradientUnits="userSpaceOnUse" x1="-220.1307" y1="-666.348" x2="-181.2988" y2="-666.348" gradientTransform="matrix(-0.7071 -0.7071 -0.7071 0.7071 -567.9435 421.8596)">
		<stop  offset="0" style="stop-color:#FFFFFF"/>
		<stop  offset="0.797" style="stop-color:#FFFFFF;stop-opacity:0"/>
	</linearGradient>
	<path id="XMLID_121_" class="st22" d="M62.9,102.3c-5.8,6.3-12.9-5.8-14.5-8.5c-1.5-2.3-2.9-5.3-4.1-8.1c-2.2-4.8-4.2-9.3-7.3-12.3
		l-6.2,6.2c1.9,1.9,3.7,5.9,5.5,9.9c1.8,3.8,3.6,7.8,5.9,11c3.2,4.2,7,6.4,11.2,6.4C57,106.7,60.2,105.2,62.9,102.3L62.9,102.3z"/>
	
		<linearGradient id="XMLID_170_" gradientUnits="userSpaceOnUse" x1="-542.3057" y1="-569.0757" x2="-503.4741" y2="-569.0757" gradientTransform="matrix(-1 0 0 1 -450 657)">
		<stop  offset="0" style="stop-color:#FFFFFF"/>
		<stop  offset="0.797" style="stop-color:#FFFFFF;stop-opacity:0"/>
	</linearGradient>
	<path id="XMLID_120_" class="st23" d="M92.2,82.3c0.4,8.5-13.2,5.1-16.2,4.2c-2.7-0.5-5.8-1.8-8.6-2.9c-4.9-1.8-9.6-3.6-13.8-3.6
		v8.8c2.7,0,6.8,1.5,10.8,3s8.1,3,11.9,3.6c5.3,0.8,9.5-0.3,12.5-3.3C91.3,89.6,92.5,86.3,92.2,82.3L92.2,82.3z"/>
	
		<linearGradient id="XMLID_174_" gradientUnits="userSpaceOnUse" x1="-701.2036" y1="-272.5585" x2="-662.3716" y2="-272.5585" gradientTransform="matrix(-0.7071 0.7071 0.7071 0.7071 -200.1404 739.9435)">
		<stop  offset="0" style="stop-color:#FFFFFF"/>
		<stop  offset="0.797" style="stop-color:#FFFFFF;stop-opacity:0"/>
	</linearGradient>
	<path id="XMLID_119_" class="st24" d="M98.9,47.4c6.3,5.8-5.8,12.9-8.5,14.5c-2.3,1.5-5.3,2.9-8.1,4.1c-4.8,2.2-9.3,4.2-12.3,7.3
		l6.2,6.2c1.9-1.9,5.9-3.7,9.9-5.5c3.8-1.8,7.8-3.6,11-5.9c4.2-3.2,6.4-7,6.4-11.2C103.3,53.3,101.8,50.1,98.9,47.4L98.9,47.4z"/>
	
		<linearGradient id="XMLID_175_" gradientUnits="userSpaceOnUse" x1="-604.0239" y1="49.5396" x2="-565.1923" y2="49.5396" gradientTransform="matrix(0 1 1 0 35 622)">
		<stop  offset="0" style="stop-color:#FFFFFF"/>
		<stop  offset="0.797" style="stop-color:#FFFFFF;stop-opacity:0"/>
	</linearGradient>
	<path id="XMLID_118_" class="st25" d="M78.9,18.1c8.5-0.4,5.1,13.2,4.2,16.2c-0.5,2.7-1.8,5.8-2.9,8.6c-1.8,4.9-3.6,9.6-3.6,13.8
		h8.8c0-2.7,1.5-6.8,3-10.8c1.5-4,3-8.1,3.6-11.9c0.8-5.3-0.3-9.5-3.3-12.5C86.2,19,82.9,17.8,78.9,18.1L78.9,18.1z"/>
	
		<linearGradient id="XMLID_179_" gradientUnits="userSpaceOnUse" x1="-307.4141" y1="208.5145" x2="-268.582" y2="208.5145" gradientTransform="matrix(0.7071 0.7071 0.7071 -0.7071 117.9435 372.1404)">
		<stop  offset="0" style="stop-color:#FFFFFF"/>
		<stop  offset="0.797" style="stop-color:#FFFFFF;stop-opacity:0"/>
	</linearGradient>
	<path id="XMLID_117_" class="st26" d="M44,11.4c5.8-6.3,12.9,5.8,14.5,8.5c1.5,2.3,2.9,5.3,4.1,8.1c2.2,4.8,4.2,9.3,7.3,12.3
		l6.2-6.2c-1.9-1.9-3.7-5.9-5.5-9.9c-1.8-3.8-3.6-7.8-5.9-11c-3.2-4.2-7-6.4-11.2-6.4C49.9,7,46.7,8.5,44,11.4L44,11.4z"/>
	
		<linearGradient id="XMLID_180_" gradientUnits="userSpaceOnUse" x1="14.5915" y1="111.2577" x2="53.4231" y2="111.2577" gradientTransform="matrix(1 0 0 -1 0 137)">
		<stop  offset="0" style="stop-color:#FFFFFF"/>
		<stop  offset="0.797" style="stop-color:#FFFFFF;stop-opacity:0"/>
	</linearGradient>
	<path id="XMLID_116_" class="st27" d="M14.7,31.4c-0.4-8.5,13.2-5.1,16.2-4.2c2.7,0.5,5.8,1.8,8.6,2.9c4.9,1.8,9.6,3.6,13.8,3.6
		v-8.8c-2.7,0-6.8-1.5-10.8-3s-8.1-3-11.9-3.6c-5.3-0.8-9.5,0.3-12.5,3.3C15.6,24.1,14.4,27.4,14.7,31.4L14.7,31.4z"/>
	<g id="XMLID_191_">
		<g id="XMLID_192_">
			<defs>
				<path id="XMLID_115_" d="M14.7,31.4c-0.4-8.5,13.2-5.1,16.2-4.2c2.7,0.5,5.8,1.8,8.6,2.9c4.9,1.8,9.6,3.6,13.8,3.6v-8.8
					c-2.7,0-6.8-1.5-10.8-3s-8.1-3-11.9-3.6c-5.3-0.8-9.5,0.3-12.5,3.3C15.6,24.1,14.4,27.4,14.7,31.4L14.7,31.4z"/>
			</defs>
			<clipPath id="XMLID_184_">
				<use xlink:href="#XMLID_115_"  style="overflow:visible;"/>
			</clipPath>
			<g id="XMLID_193_" class="st28">
				
					<linearGradient id="XMLID_185_" gradientUnits="userSpaceOnUse" x1="11.9002" y1="108.0637" x2="53.4261" y2="108.0637" gradientTransform="matrix(1 0 0 -1 0 137)">
					<stop  offset="0" style="stop-color:#FFFFFF"/>
					<stop  offset="1" style="stop-color:#FFFFFF;stop-opacity:0"/>
				</linearGradient>
				<path id="XMLID_114_" class="st29" d="M14.5,31.5L14.5,31.5L14.5,31.5c-0.3-1-0.4-2.1-0.1-3c0.3-1.1,1-2.1,1.9-2.7
					c1-0.7,1.9-1.1,2.9-1.5c1-0.3,2.1-0.5,3-0.5c2.1-0.1,4-0.1,5.9,0.1c1,0.1,1.9,0.3,2.9,0.5l0.7,0.1l0.5,0.1l1.4,0.4
					c3.7,1.1,7,2.6,10.1,4.2c1.6,0.8,3.2,1.5,4.8,2.3c1.6,0.8,3.2,1.4,5.1,2.1c-1.8,0.5-3.7,0.7-5.6,0.5c-1.9-0.1-3.7-0.4-5.5-0.8
					c-1.8-0.4-3.6-1-5.2-1.5c-1.6-0.5-3.4-1.1-4.9-1.5l-1.2-0.3L30.4,30l-0.5-0.1c-0.8-0.3-1.6-0.4-2.5-0.7c-1.6-0.4-3.3-0.7-4.9-1
					c-1.6-0.3-3.2-0.3-4.5,0.1c-0.7,0.1-1.2,0.5-1.8,1.1C15.4,29.7,15,30.5,14.5,31.5L14.5,31.5L14.5,31.5z"/>
			</g>
		</g>
	</g>
	<g id="XMLID_186_" class="st30">
		<g id="XMLID_187_">
			<defs>
				<path id="XMLID_113_" d="M8,66.3c-6.3-5.8,5.8-12.9,8.5-14.5c2.3-1.5,5.3-2.9,8.1-4.1c4.8-2.2,9.3-4.2,12.3-7.3l-6.2-6.2
					c-1.9,1.9-5.9,3.7-9.9,5.5c-3.8,1.8-7.8,3.6-11,5.9c-4.2,3.2-6.4,7-6.4,11.2C3.6,60.4,5.1,63.5,8,66.3L8,66.3z"/>
			</defs>
			<clipPath id="XMLID_189_">
				<use xlink:href="#XMLID_113_"  style="overflow:visible;"/>
			</clipPath>
			<g id="XMLID_188_" class="st31">
				
					<linearGradient id="XMLID_190_" gradientUnits="userSpaceOnUse" x1="4.2168" y1="70.6405" x2="33.5799" y2="100.0037" gradientTransform="matrix(1 0 0 -1 0 137)">
					<stop  offset="0" style="stop-color:#FFFFFF"/>
					<stop  offset="1" style="stop-color:#FFFFFF;stop-opacity:0"/>
				</linearGradient>
				<path id="XMLID_111_" class="st32" d="M8.1,66.4L8.1,66.4L8.1,66.4c-1-0.4-1.8-1.1-2.3-2.1c-0.5-1-0.7-2.2-0.7-3.3
					c0.1-1.1,0.5-2.2,1-3.2c0.5-1,1.1-1.8,1.8-2.6c1.2-1.5,2.7-2.9,4.2-4c0.8-0.5,1.5-1.1,2.3-1.6l0.7-0.4l0.5-0.3l1.2-0.7
					c3.3-1.8,6.7-3,10.1-4.2c1.6-0.5,3.3-1.1,5.1-1.8c1.6-0.5,3.3-1.2,4.9-2.1c-0.8,1.6-2.2,3.2-3.6,4.4c-1.4,1.2-3,2.3-4.5,3.3
					c-1.5,1-3.2,1.8-4.8,2.7c-1.5,0.8-3.2,1.6-4.7,2.5l-1.1,0.5l-0.7,0.4l-0.5,0.3c-0.7,0.4-1.5,0.8-2.2,1.2
					c-1.5,0.8-2.9,1.8-4.1,2.7s-2.5,2.1-3.2,3.3c-0.4,0.5-0.5,1.2-0.5,2.1C7.3,64.6,7.6,65.5,8.1,66.4L8.1,66.4L8.1,66.4z"/>
			</g>
		</g>
	</g>
	<g id="XMLID_181_" class="st33">
		<g id="XMLID_182_">
			<defs>
				<path id="XMLID_60_" d="M28,95.6c-8.5,0.4-5.1-13.2-4.2-16.2c0.5-2.7,1.8-5.8,2.9-8.6c1.8-4.9,3.6-9.6,3.6-13.8h-8.8
					c0,2.7-1.5,6.8-3,10.8c-1.5,4-3,8.1-3.6,11.9c-0.8,5.3,0.3,9.5,3.3,12.5C20.7,94.6,24,95.9,28,95.6L28,95.6z"/>
			</defs>
			<clipPath id="XMLID_194_">
				<use xlink:href="#XMLID_60_"  style="overflow:visible;"/>
			</clipPath>
			<g id="XMLID_183_" class="st34">
				
					<linearGradient id="XMLID_195_" gradientUnits="userSpaceOnUse" x1="25.5516" y1="38.6186" x2="25.5516" y2="80.1441" gradientTransform="matrix(1 0 0 -1 0 137)">
					<stop  offset="0" style="stop-color:#FFFFFF"/>
					<stop  offset="1" style="stop-color:#FFFFFF;stop-opacity:0"/>
				</linearGradient>
				<path id="XMLID_55_" class="st35" d="M28.1,95.7L28.1,95.7L28.1,95.7c-1,0.3-2.1,0.4-3,0.1c-1.1-0.3-2.1-1-2.7-1.9
					c-0.7-1-1.1-1.9-1.5-2.9c-0.3-1-0.5-2.1-0.5-3c-0.1-2.1-0.1-4,0.1-5.9c0.1-1,0.3-1.9,0.5-2.9l0.1-0.7l0.1-0.5l0.4-1.4
					c1.1-3.7,2.6-7,4.2-10.1c0.8-1.6,1.5-3.2,2.3-4.8c0.8-1.6,1.4-3.2,2.1-5.1c0.5,1.8,0.7,3.7,0.5,5.6c-0.1,1.9-0.4,3.7-0.8,5.5
					c-0.4,1.8-1,3.6-1.5,5.2c-0.5,1.6-1.1,3.4-1.5,4.9l-0.3,1.2l-0.1,0.7l-0.1,0.5c-0.3,0.8-0.4,1.6-0.7,2.5c-0.4,1.6-0.7,3.3-1,4.9
					c-0.3,1.6-0.3,3.2,0.1,4.5c0.1,0.7,0.5,1.2,1.1,1.8C26.3,94.9,27.1,95.3,28.1,95.7L28.1,95.7L28.1,95.7z"/>
			</g>
		</g>
	</g>
	<g id="XMLID_176_" class="st36">
		<g id="XMLID_177_">
			<defs>
				<path id="XMLID_54_" d="M62.9,102.3c-5.8,6.3-12.9-5.8-14.5-8.5c-1.5-2.3-2.9-5.3-4.1-8.1c-2.2-4.8-4.2-9.3-7.3-12.3l-6.2,6.2
					c1.9,1.9,3.7,5.9,5.5,9.9c1.8,3.8,3.6,7.8,5.9,11c3.2,4.2,7,6.4,11.2,6.4C57,106.7,60.2,105.2,62.9,102.3L62.9,102.3z"/>
			</defs>
			<clipPath id="XMLID_196_">
				<use xlink:href="#XMLID_54_"  style="overflow:visible;"/>
			</clipPath>
			<g id="XMLID_178_" class="st37">
				
					<linearGradient id="XMLID_197_" gradientUnits="userSpaceOnUse" x1="62.9746" y1="30.9349" x2="33.6118" y2="60.2978" gradientTransform="matrix(1 0 0 -1 0 137)">
					<stop  offset="0" style="stop-color:#FFFFFF"/>
					<stop  offset="1" style="stop-color:#FFFFFF;stop-opacity:0"/>
				</linearGradient>
				<path id="XMLID_50_" class="st38" d="M63,102.2L63,102.2L63,102.2c-0.4,1-1.1,1.8-2.1,2.3c-1,0.5-2.2,0.7-3.3,0.7
					c-1.1-0.1-2.2-0.5-3.2-1c-1-0.5-1.8-1.1-2.6-1.8c-1.5-1.2-2.9-2.7-4-4.2c-0.5-0.8-1.1-1.5-1.6-2.3l-0.4-0.7l-0.3-0.5L45,93.4
					c-1.8-3.3-3-6.7-4.2-10.1c-0.5-1.6-1.1-3.3-1.8-5.1c-0.5-1.6-1.2-3.3-2.1-4.9c1.6,0.8,3.2,2.2,4.4,3.6s2.3,3,3.3,4.5
					c1,1.5,1.8,3.2,2.7,4.8c0.8,1.5,1.6,3.2,2.5,4.7l0.5,1.1l0.4,0.7l0.3,0.5c0.4,0.7,0.8,1.5,1.2,2.2c0.8,1.5,1.8,2.9,2.7,4.1
					c1,1.2,2.1,2.5,3.3,3.2c0.5,0.4,1.2,0.5,2.1,0.5C61.3,103,62.1,102.7,63,102.2L63,102.2L63,102.2z"/>
			</g>
		</g>
	</g>
	<g id="XMLID_171_" class="st39">
		<g id="XMLID_172_">
			<defs>
				<path id="XMLID_49_" d="M92.2,82.3c0.4,8.5-13.2,5.1-16.2,4.2c-2.7-0.5-5.8-1.8-8.6-2.9c-4.9-1.8-9.6-3.6-13.8-3.6v8.8
					c2.7,0,6.8,1.5,10.8,3s8.1,3,11.9,3.6c5.3,0.8,9.5-0.3,12.5-3.3C91.3,89.6,92.5,86.3,92.2,82.3L92.2,82.3z"/>
			</defs>
			<clipPath id="XMLID_198_">
				<use xlink:href="#XMLID_49_"  style="overflow:visible;"/>
			</clipPath>
			<g id="XMLID_173_" class="st40">
				
					<linearGradient id="XMLID_199_" gradientUnits="userSpaceOnUse" x1="94.9968" y1="52.2697" x2="53.471" y2="52.2697" gradientTransform="matrix(1 0 0 -1 0 137)">
					<stop  offset="0" style="stop-color:#FFFFFF"/>
					<stop  offset="1" style="stop-color:#FFFFFF;stop-opacity:0"/>
				</linearGradient>
				<path id="XMLID_13_" class="st41" d="M92.4,82.2L92.4,82.2L92.4,82.2c0.3,1,0.4,2.1,0.1,3c-0.3,1.1-1,2.1-1.9,2.7
					s-1.9,1.1-2.9,1.5c-1,0.3-2.1,0.5-3,0.5c-2.1,0.1-4,0.1-5.9-0.1c-1-0.1-1.9-0.3-2.9-0.5l-0.7-0.1L74.7,89l-1.4-0.4
					c-3.7-1.1-7-2.6-10.1-4.2c-1.6-0.8-3.2-1.5-4.8-2.3c-1.6-0.8-3.2-1.4-5.1-2.1c1.8-0.5,3.7-0.7,5.6-0.5c1.9,0.1,3.7,0.4,5.5,0.8
					c1.8,0.4,3.6,1,5.2,1.5s3.4,1.1,4.9,1.5l1.2,0.3l0.7,0.1l0.5,0.1c0.8,0.3,1.6,0.4,2.5,0.7c1.6,0.4,3.3,0.7,4.9,1
					c1.6,0.3,3.2,0.3,4.5-0.1c0.7-0.1,1.2-0.5,1.8-1.1C91.5,84,91.9,83.1,92.4,82.2L92.4,82.2L92.4,82.2z"/>
			</g>
		</g>
	</g>
	<g id="XMLID_166_" class="st36">
		<g id="XMLID_167_">
			<defs>
				<path id="XMLID_12_" d="M98.9,47.4c6.3,5.8-5.8,12.9-8.5,14.5c-2.3,1.5-5.3,2.9-8.1,4.1c-4.8,2.2-9.3,4.2-12.3,7.3l6.2,6.2
					c1.9-1.9,5.9-3.7,9.9-5.5c3.8-1.8,7.8-3.6,11-5.9c4.2-3.2,6.4-7,6.4-11.2C103.3,53.3,101.8,50.1,98.9,47.4L98.9,47.4z"/>
			</defs>
			<clipPath id="XMLID_200_">
				<use xlink:href="#XMLID_12_"  style="overflow:visible;"/>
			</clipPath>
			<g id="XMLID_168_" class="st42">
				
					<linearGradient id="XMLID_201_" gradientUnits="userSpaceOnUse" x1="102.6804" y1="89.6929" x2="73.3173" y2="60.3297" gradientTransform="matrix(1 0 0 -1 0 137)">
					<stop  offset="0" style="stop-color:#FFFFFF"/>
					<stop  offset="1" style="stop-color:#FFFFFF;stop-opacity:0"/>
				</linearGradient>
				<path id="XMLID_11_" class="st43" d="M98.8,47.2L98.8,47.2L98.8,47.2c1,0.4,1.8,1.1,2.3,2.1c0.5,1,0.7,2.2,0.7,3.3
					c-0.1,1.1-0.5,2.2-1,3.2c-0.5,1-1.1,1.8-1.8,2.6c-1.2,1.5-2.7,2.9-4.2,4c-0.8,0.5-1.5,1.1-2.3,1.6l-0.7,0.4l-0.5,0.3L90,65.3
					c-3.3,1.8-6.7,3-10.1,4.2c-1.6,0.5-3.3,1.1-5.1,1.8c-1.6,0.5-3.3,1.2-4.9,2.1c0.8-1.6,2.2-3.2,3.6-4.4c1.4-1.2,3-2.3,4.5-3.3
					c1.5-1,3.2-1.8,4.8-2.7c1.5-0.8,3.2-1.6,4.7-2.5l1.1-0.5l0.7-0.4l0.5-0.3c0.7-0.4,1.5-0.8,2.2-1.2c1.5-0.8,2.9-1.8,4.1-2.7
					c1.2-1,2.5-2.1,3.2-3.3c0.4-0.5,0.5-1.2,0.5-2.1C99.6,49,99.3,48.2,98.8,47.2L98.8,47.2L98.8,47.2z"/>
			</g>
		</g>
	</g>
	<g id="XMLID_161_" class="st33">
		<g id="XMLID_162_">
			<defs>
				<path id="XMLID_10_" d="M78.9,18.1c8.5-0.4,5.1,13.2,4.2,16.2c-0.5,2.7-1.8,5.8-2.9,8.6c-1.8,4.9-3.6,9.6-3.6,13.8h8.8
					c0-2.7,1.5-6.8,3-10.8c1.5-4,3-8.1,3.6-11.9c0.8-5.3-0.3-9.5-3.3-12.5C86.2,19,82.9,17.8,78.9,18.1L78.9,18.1z"/>
			</defs>
			<clipPath id="XMLID_202_">
				<use xlink:href="#XMLID_10_"  style="overflow:visible;"/>
			</clipPath>
			<g id="XMLID_163_" class="st44">
				
					<linearGradient id="XMLID_203_" gradientUnits="userSpaceOnUse" x1="81.3456" y1="121.7149" x2="81.3456" y2="80.1893" gradientTransform="matrix(1 0 0 -1 0 137)">
					<stop  offset="0" style="stop-color:#FFFFFF"/>
					<stop  offset="1" style="stop-color:#FFFFFF;stop-opacity:0"/>
				</linearGradient>
				<path id="XMLID_9_" class="st45" d="M78.8,17.9L78.8,17.9L78.8,17.9c1-0.3,2.1-0.4,3-0.1c1.1,0.3,2.1,1,2.7,1.9
					c0.7,1,1.1,1.9,1.5,2.9c0.3,1,0.5,2.1,0.5,3c0.1,2.1,0.1,4-0.1,5.9c-0.1,1-0.3,1.9-0.5,2.9l-0.1,0.7l-0.1,0.5L85.2,37
					c-1.1,3.7-2.6,7-4.2,10.1c-0.8,1.6-1.5,3.2-2.3,4.8c-0.8,1.6-1.4,3.2-2.1,5.1c-0.5-1.8-0.7-3.7-0.5-5.6c0.1-1.9,0.4-3.7,0.8-5.5
					c0.4-1.8,1-3.6,1.5-5.2c0.5-1.6,1.1-3.4,1.5-4.9l0.3-1.2l0.1-0.7l0.1-0.5c0.3-0.8,0.4-1.6,0.7-2.5c0.4-1.6,0.7-3.3,1-4.9
					c0.3-1.6,0.3-3.2-0.1-4.5c-0.1-0.7-0.5-1.2-1.1-1.8C80.6,18.8,79.7,18.3,78.8,17.9L78.8,17.9L78.8,17.9z"/>
			</g>
		</g>
	</g>
	<g id="XMLID_156_" class="st30">
		<g id="XMLID_157_">
			<defs>
				<path id="XMLID_8_" d="M44,11.4c5.8-6.3,12.9,5.8,14.5,8.5c1.5,2.3,2.9,5.3,4.1,8.1c2.2,4.8,4.2,9.3,7.3,12.3l6.2-6.2
					c-1.9-1.9-3.7-5.9-5.5-9.9c-1.8-3.8-3.6-7.8-5.9-11c-3.2-4.2-7-6.4-11.2-6.4C49.9,7,46.7,8.5,44,11.4L44,11.4z"/>
			</defs>
			<clipPath id="XMLID_206_">
				<use xlink:href="#XMLID_8_"  style="overflow:visible;"/>
			</clipPath>
			<g id="XMLID_158_" class="st46">
				
					<linearGradient id="XMLID_207_" gradientUnits="userSpaceOnUse" x1="43.9224" y1="129.3985" x2="73.2854" y2="100.0355" gradientTransform="matrix(1 0 0 -1 0 137)">
					<stop  offset="0" style="stop-color:#FFFFFF"/>
					<stop  offset="1" style="stop-color:#FFFFFF;stop-opacity:0"/>
				</linearGradient>
				<path id="XMLID_7_" class="st47" d="M43.9,11.5L43.9,11.5L43.9,11.5c0.4-1,1.1-1.8,2.1-2.3c1-0.5,2.2-0.7,3.3-0.7
					c1.1,0.1,2.2,0.5,3.2,1c1,0.5,1.8,1.1,2.6,1.8c1.5,1.2,2.9,2.7,4,4.2c0.5,0.8,1.1,1.5,1.6,2.3l0.4,0.7l0.3,0.5l0.7,1.2
					c1.8,3.3,3,6.7,4.2,10.1c0.5,1.6,1.1,3.3,1.8,5.1c0.5,1.6,1.2,3.3,2.1,4.9c-1.6-0.8-3.2-2.2-4.4-3.6c-1.2-1.4-2.3-3-3.3-4.5
					c-1-1.5-1.8-3.2-2.7-4.8c-0.8-1.5-1.6-3.2-2.5-4.7l-0.5-1.1l-0.4-0.7l-0.3-0.5c-0.4-0.7-0.8-1.5-1.2-2.2
					c-0.8-1.5-1.8-2.9-2.7-4.1s-2.1-2.5-3.3-3.2c-0.5-0.4-1.2-0.5-2.1-0.5C45.6,10.7,44.8,10.9,43.9,11.5L43.9,11.5L43.9,11.5z"/>
			</g>
		</g>
	</g>
</g>
</svg>
